<?xml version="1.0" standalone="yes"?>
<svg xmlns="http://www.w3.org/2000/svg" width="591" height="553">
<path style="fill:#ffffff; stroke:none;" d="M0 0L0 553L591 553L591 0L0 0z"/>
<path style="fill:#000000; stroke:none;" d="M197 316C190.283 325.517 186.482 337.885 183.291 349C173.559 382.898 174.55 419.233 184.424 453C187.42 463.244 191.169 473.22 195.424 483C196.895 486.38 198.554 491.805 202.213 493.397C208.634 496.19 220.043 494 227 494L286 494L359 494C371.177 494 383.859 495.029 395.985 493.941C402.703 493.339 402.56 485.183 409.015 484.148C419.714 482.433 432.291 483.811 443 484.83C455.049 485.977 466.997 486.422 479 488.435C489.893 490.263 500.292 493.523 511 496C500.498 500.976 479.948 514.122 492.228 527.907C493.874 529.754 495.91 531.233 498 532.532C501.125 534.475 504.534 536.074 508 537.301C522.001 542.256 538.127 540.241 552 535.806C556.922 534.232 562.766 532.438 566.96 529.351C570.782 526.538 573.224 522.253 575.135 518C583.21 500.026 575.184 481.479 556 475.04C537.85 468.948 517.943 466.119 499 463.845C479.113 461.458 459.029 459.242 439 459.004C430.608 458.904 422.38 460 414 460C419.462 447.662 421.739 433.328 423.166 420C425.725 396.097 424.382 372.242 417.709 349C414.518 337.885 410.717 325.517 404 316C458.198 309.001 492.698 253.667 494.961 202C495.451 190.796 495.531 179.057 493.537 168C492.271 160.977 487.342 152.042 488.801 145C490.542 136.596 494.663 128.184 497.33 120C501.174 108.208 503.754 96.2669 505.424 84C506.641 75.0537 506.552 61.7098 497.907 56.2284C491.762 52.3328 482.429 53.6555 476 56.0648C460.769 61.7727 447.383 72.1293 435 82.4352C430.71 86.0054 423.791 95.1555 417.83 94.848C412.314 94.5634 406.455 92.596 401 91.6142C392.106 90.0134 382.986 89.0675 374 88.169C339.716 84.7411 304.499 83.5285 270 85.0394C249.667 85.9298 229.213 87.6238 209 90.2816C202.64 91.1179 196.29 92.1911 190 93.4491C187.314 93.9861 184.048 95.3818 181.285 94.7816C175.405 93.5042 168.657 84.5774 164 80.804C149.381 68.9578 130.144 52.3701 110 54.0941C97.5249 55.1618 94.5973 68.5201 95.0394 79C95.6983 94.6227 100.423 110.269 105.333 125C107.562 131.685 111.465 139.025 112.389 146C113.29 152.802 108.684 161.228 107.463 168C105.469 179.057 105.549 190.796 106.039 202C108.302 253.667 142.802 309.001 197 316z"/>
<path style="fill:#99958e; stroke:none;" d="M107.094 59.858C101.32 62.4145 100.127 70.4189 100.015 76C99.7281 90.3247 104.271 105.504 108.67 119C111.398 127.371 117.631 138.194 117.631 147C117.632 153.733 113.826 161.281 112.614 168C110.607 179.132 110.545 190.711 111.039 202C112.134 226.99 121.963 254.059 136.895 274C147.958 288.774 162.395 300.959 180 307.135C194.377 312.179 210.932 313.553 226 315.166C268.907 319.76 311.972 320.105 355 317.09C378.767 315.424 407.276 314.328 429 303.741C474.337 281.646 490.225 229.855 489.999 183C489.961 175.016 488.502 166.729 486.522 159C485.121 153.535 482.445 148.727 484.047 143C489.621 123.075 497.458 104.689 500.421 84C501.442 76.8699 502.105 64.6388 494.812 60.3179C489.504 57.1733 481.266 59.3281 476 61.4529C461.285 67.3904 447.845 77.7854 436 88.1559C431.875 91.7671 425.736 99.7872 420 100.218C415.302 100.572 409.633 98.26 405 97.4244C394.756 95.5768 384.351 94.204 374 93.169C339.376 89.7071 303.842 88.5135 269 90.0394C249.022 90.9143 228.82 92.4876 209 95.4213C202.637 96.3631 196.308 97.3311 190 98.6003C186.982 99.2075 183.077 100.791 180 100.096C174.589 98.8749 169.078 91.7262 165 88.1559C153.584 78.1609 140.9 68.5768 127 62.3117C121.362 59.7704 113.164 57.1704 107.094 59.858z"/>
<path style="fill:#000000; stroke:none;" d="M117 77C130.311 82.5785 140.303 94.1367 151 103.424C152.595 104.81 160.55 113.931 162.824 110.338C165.056 106.811 156.124 100.159 154 98.2855C145.579 90.8578 137.49 82.6445 128 76.5471C124.538 74.3224 119.304 70.9371 115.133 73.1945C109.978 75.9847 111.408 82.3845 112.424 87C114.981 98.6151 119.202 109.867 123.319 121C124.299 123.651 126.768 134.846 130.775 134.079C135.012 133.268 129.805 123.026 129 121C123.705 107.679 116.146 91.5672 117 77M484 77C484.854 91.5673 477.295 107.679 472 121C471.195 123.026 465.988 133.268 470.225 134.079C474.232 134.846 476.701 123.651 477.681 121C481.798 109.867 486.019 98.6151 488.576 87C489.592 82.3844 491.022 75.9847 485.867 73.1945C481.696 70.9372 476.462 74.3224 473 76.5471C463.51 82.6445 455.421 90.8578 447 98.2855C444.876 100.159 435.944 106.811 438.176 110.338C440.45 113.932 448.405 104.81 450 103.424C460.697 94.1367 470.689 82.5786 484 77M281 160C294.193 160.567 306.807 160.567 320 160C320.883 166.554 323.25 172.75 325.333 179C330.084 193.253 335.24 207.225 349 215.12C367.481 225.724 388.523 225 409 225C421.73 225 436.024 223.637 445.996 214.815C457.414 204.714 459.525 190.288 461.424 176C462.335 169.148 463.618 158.848 461.682 152.133C460.088 146.605 449.642 146.638 445 146C427.472 143.593 409.681 143 392 143C374.677 143 357.204 143.2 340 145.285C328.219 146.713 316.881 150.981 305 151C289.344 151.025 275.43 146.718 260 145.169C240.039 143.165 220.069 143 200 143C184.743 143 169.109 144.046 154 146.272C149.958 146.867 141.603 146.968 139.603 151.279C137.482 155.85 138.945 164.029 139.004 169C139.271 191.451 146.259 215.569 170 222.561C179.111 225.244 188.611 225 198 225C219.185 225 244.445 224.563 260.7 208.561C268.755 200.631 272.192 189.424 275.667 179C277.75 172.75 280.117 166.554 281 160z"/>
<path style="fill:#99958e; stroke:none;" d="M144 158C144 174.355 143.72 194.896 155.21 207.985C161.654 215.327 170.673 217.953 180 219.41C186.894 220.486 194.04 220 201 220C218.603 220 239.381 219.255 253.961 207.76C268.483 196.31 271.675 174.653 277 158C233.25 149.516 187.834 152.339 144 158M324 158C329.325 174.653 332.517 196.31 347.039 207.76C361.619 219.255 382.397 220 400 220C406.96 220 414.106 220.486 421 219.41C430.326 217.953 439.346 215.327 445.79 207.985C457.28 194.896 457 174.355 457 158C413.166 152.339 367.75 149.516 324 158z"/>
<path style="fill:#000000; stroke:none;" d="M166.662 171.008C164.401 172.906 167.327 174.558 169.059 174.852C173.19 175.552 177.818 175 182 175L235 175C239.997 175 245.003 175.09 249.999 174.995C251.767 174.962 254.71 175.216 255.824 173.455C257.091 171.453 254.415 170.398 252.941 170.148C247.869 169.289 242.138 170 237 170L185 170C180.647 170 170.149 168.082 166.662 171.008M345.662 171.008C343.402 172.905 346.326 174.558 348.059 174.852C352.19 175.552 356.818 175 361 175L414 175C418.997 175 424.003 175.09 428.999 174.995C430.767 174.962 433.71 175.216 434.824 173.455C436.091 171.453 433.415 170.398 431.941 170.148C426.869 169.289 421.138 170 416 170L364 170C359.647 170 349.149 168.082 345.662 171.008M246 243C246.774 252.474 250.777 261.193 259.004 266.441C272.844 275.269 294.514 270.538 300 254C303.692 259.885 307.544 265.031 314 268.088C333.28 277.217 353.337 263.363 355 243L350 243C346.87 264.193 320.271 274.878 307.109 254.996C304.676 251.321 303.583 247.31 303 243L298 243C297.417 247.31 296.324 251.321 293.891 254.996C280.729 274.878 254.13 264.193 251 243L246 243z"/>
<path style="fill:#22b14c; stroke:none;" d="M232 483C223.445 482.628 217.65 467.802 214.247 461C202.066 436.654 196 410.183 196 383L201 383C201 405.354 204.944 427.15 213.204 448C215.172 452.969 218.924 465.591 224.213 467.759C226.79 468.816 229.769 466.851 232 465.752C238.252 462.672 244.565 459.675 251 457C248.229 449.387 243.62 442.465 240.427 435C233.62 419.081 228.048 400.423 228 383L233 383C233.019 412.358 246.662 439.864 261.947 464C265.909 470.257 270.025 475.285 274.61 481.015C276.443 483.305 277.601 487.085 280.39 488.397C284.964 490.547 293.003 489 298 489L298 454C298 449.87 299.286 443.018 296.972 439.39C294.848 436.06 289.385 434.446 286 432.753C276.652 428.079 264.129 424.131 256.148 417.363C251.129 413.106 253.012 403.902 253 398C252.994 395.327 253.419 392.056 251.397 389.966C248.6 387.076 243.55 385.528 240 383.753L218 372.753C214.287 370.897 209.165 369.226 206.603 365.787C203.797 362.019 205 355.427 205 351L205 317C200.261 318.482 198.836 322.767 196.756 327C192.242 336.185 189.173 346.109 186.63 356C178.02 389.481 180.432 425.296 191.333 458C194.318 466.955 197.06 476.731 201.824 484.941C205.487 491.254 215.728 489.013 222 489C224.402 488.995 227.453 489.376 229.566 487.977C231.37 486.783 231.598 484.929 232 483z"/>
<path style="fill:#00a2e8; stroke:none;" d="M396 317L396 351C396 355.427 397.203 362.019 394.397 365.787C391.835 369.226 386.713 370.897 383 372.753L361 383.753C357.45 385.528 352.4 387.076 349.603 389.966C347.581 392.056 348.005 395.327 348 398C347.988 403.902 349.871 413.106 344.852 417.363C336.871 424.131 324.348 428.079 315 432.753C311.615 434.446 306.152 436.06 304.028 439.39C301.714 443.018 303 449.87 303 454L303 489C307.997 489 316.036 490.547 320.61 488.397C323.399 487.085 324.557 483.305 326.39 481.015C330.975 475.285 335.091 470.257 339.053 464C354.338 439.864 367.981 412.358 368 383L373 383C372.952 400.423 367.38 419.081 360.573 435C357.38 442.465 352.771 449.387 350 457C356.435 459.675 362.748 462.672 369 465.752C371.231 466.851 374.21 468.816 376.787 467.759C382.076 465.591 385.828 452.969 387.796 448C396.056 427.15 400 405.354 400 383L405 383C405 410.183 398.934 436.654 386.753 461C383.35 467.802 377.555 482.628 369 483C369.402 484.929 369.63 486.783 371.434 487.977C373.547 489.376 376.598 488.995 379 489C385.272 489.013 395.513 491.254 399.176 484.941C403.94 476.731 406.682 466.955 409.667 458C420.568 425.296 422.98 389.481 414.37 356C411.827 346.109 408.758 336.185 404.244 327C402.164 322.767 400.739 318.482 396 317z"/>
<path style="fill:#99d9ea; stroke:none;" d="M215 319C221.882 329.415 230.115 339.028 237.626 349C239.647 351.684 243.206 358.793 247.09 358.793C250.823 358.793 254.627 353.372 257 351C265.648 342.356 275.953 334.004 283 324C260.165 324 237.733 319.976 215 319z"/>
<path style="fill:#b5e61d; stroke:none;" d="M318 324C325.047 334.004 335.352 342.356 344 351C346.373 353.372 350.177 358.793 353.91 358.793C357.794 358.793 361.353 351.684 363.374 349C370.885 339.028 379.118 329.415 386 319C363.267 319.976 340.835 324 318 324z"/>
<path style="fill:#22b14c; stroke:none;" d="M210 321L210 351C210 354.508 208.911 360.33 211.028 363.363C213.377 366.727 219.447 368.47 223 370.247L244 380.753C247.785 382.645 252.71 384.281 255.682 387.39C261.819 393.811 255.141 405.248 258.603 412.61C260.22 416.047 265.83 417.662 269 419.247C277.604 423.549 286.12 428.303 295 432C288.443 421.507 280.026 411.772 272.424 402C261.618 388.109 251.231 373.892 240.424 360C230.66 347.447 221.887 331.551 210 321z"/>
<path style="fill:#00a2e8; stroke:none;" d="M390 321C370.741 347.811 350.139 373.755 330.116 400C322.086 410.525 313.012 420.777 306 432C314.88 428.303 323.396 423.549 332 419.247C335.17 417.662 340.78 416.047 342.397 412.61C345.859 405.248 339.181 393.811 345.318 387.39C348.29 384.281 353.215 382.645 357 380.753L378 370.247C381.553 368.47 387.623 366.727 389.972 363.363C391.542 361.114 390.999 357.584 391 355L391 337C391 331.92 391.981 325.72 390 321z"/>
<path style="fill:#ed1c24; stroke:none;" d="M300 340C302.18 338.464 304.094 336.859 306.004 334.981C307.293 333.713 308.735 332.444 309.833 331.001C316.625 322.063 299.999 323.801 295.001 324.019C293.156 324.1 290.074 324.13 289.346 326.318C287.925 330.587 297.368 337.368 300 340z"/>
<path style="fill:#99d9ea; stroke:none;" d="M289 415C286.871 398.155 286.516 380.776 289.615 364C290.708 358.084 297.413 346.33 294.353 341C292.668 338.064 287.718 332.207 284 332.207C281.19 332.207 278.815 335.228 277 337.005C272.286 341.62 267.665 346.335 263 351C259.617 354.383 252.611 359.162 251.458 364C250.386 368.492 257.163 374.72 259.627 378C268.562 389.895 277.463 405.608 289 415z"/>
<path style="fill:#b5e61d; stroke:none;" d="M312 415C323.537 405.608 332.438 389.895 341.373 378C343.837 374.72 350.614 368.492 349.542 364C348.389 359.162 341.383 354.383 338 351C333.335 346.335 328.714 341.62 324 337.005C322.185 335.228 319.81 332.207 317 332.207C313.282 332.207 308.332 338.064 306.647 341C303.587 346.33 310.292 358.084 311.385 364C314.484 380.776 314.129 398.155 312 415z"/>
<path style="fill:#ed1c24; stroke:none;" d="M300 346C293.608 364.893 292.093 382.22 292.961 402C293.431 412.716 293.478 422.061 300 431C307.39 424.513 307.91 414.335 308 405C308.134 391.067 309.008 377.889 306.389 364C305.228 357.844 303.832 351.068 300 346z"/>
<path style="fill:#000000; stroke:none;" d="M309.059 448.043C301.448 451.959 307.525 463.129 314.772 458.817C321.131 455.034 315.895 444.526 309.059 448.043z"/>
<path style="fill:#ffffff; stroke:none;" d="M310 452L310 455L313 455L313 452L310 452z"/>
<path style="fill:#b5e61d; stroke:none;" d="M227 473C228.004 474.772 228.819 476.667 231.108 477.011C234.075 477.456 237.473 475.012 240 473.753C245.562 470.982 251.264 468.385 257 466L255 461C245.315 462.726 236.07 469.224 227 473z"/>
<path style="fill:#99d9ea; stroke:none;" d="M346 461L344 466C349.736 468.385 355.438 470.982 361 473.753C363.527 475.012 366.925 477.456 369.892 477.011C372.181 476.667 372.996 474.772 374 473C364.93 469.224 355.685 462.726 346 461z"/>
<path style="fill:#99958e; stroke:none;" d="M412 465C410.85 469.854 408.799 474.36 407 479C436.81 479 466.823 479.76 496 486.654C503.694 488.473 510.575 491.737 518 494.197C525.08 496.542 533.6 495.48 541 497.236C543.088 497.732 547.813 498.506 548.369 501.115C549.239 505.198 537.671 501.387 536 501.134C525.247 499.508 513.578 498.793 504 504.969C493.862 511.507 490.373 522.417 502 529.12C519.517 539.22 544.755 535.808 561.985 526.468C572.79 520.61 577.349 502.004 570.351 492C560.478 477.885 540.761 475.55 525 472.92C497.031 468.253 469.275 465.277 441 464.039C431.273 463.613 421.708 465 412 465M237 480C238.139 481.015 238.612 481.309 240 482L236 489L274 489C272.725 486.103 271.346 483.502 268.895 481.394C264.755 477.831 259.222 477.526 261 471C253.423 470.111 244.023 477.119 237 480M340 471C341.778 477.526 336.245 477.831 332.105 481.394C329.654 483.502 328.275 486.103 327 489L365 489L361 482L364 481C358.759 476.673 346.769 470.206 340 471z"/>
<path style="fill:#000000; stroke:none;" d="M306.662 472.008C304.891 473.495 306.513 475.199 308.153 475.683C310.258 476.303 314.544 476.497 316.338 474.992C318.109 473.505 316.487 471.801 314.847 471.317C312.742 470.697 308.456 470.503 306.662 472.008z"/>
</svg>
